<mxfile host="Electron" modified="2024-02-19T07:22:25.607Z" agent="Mozilla/5.0 (Macintosh; Intel Mac OS X 10_15_7) AppleWebKit/537.36 (KHTML, like Gecko) draw.io/21.4.0 Chrome/112.0.5615.204 Electron/24.5.1 Safari/537.36" etag="Dpj-h2IqHvkvfLspGcoq" version="21.4.0" type="device" pages="2">
  <diagram name="Page-1" id="XtJXl4k4IY9sB2TwX5hV">
    <mxGraphModel dx="710" dy="473" grid="1" gridSize="10" guides="1" tooltips="1" connect="1" arrows="1" fold="1" page="1" pageScale="1" pageWidth="827" pageHeight="1169" math="0" shadow="0">
      <root>
        <mxCell id="0" />
        <mxCell id="1" parent="0" />
        <mxCell id="3Phlq4Ac1MNl_wi4tgLu-1" value="client" style="shape=umlActor;verticalLabelPosition=bottom;verticalAlign=top;html=1;outlineConnect=0;fontSize=15;fontStyle=1" vertex="1" parent="1">
          <mxGeometry x="126" y="254" width="20" height="30" as="geometry" />
        </mxCell>
        <mxCell id="3Phlq4Ac1MNl_wi4tgLu-21" style="edgeStyle=orthogonalEdgeStyle;rounded=0;orthogonalLoop=1;jettySize=auto;html=1;entryX=0.07;entryY=0.4;entryDx=0;entryDy=0;entryPerimeter=0;" edge="1" parent="1" source="3Phlq4Ac1MNl_wi4tgLu-2" target="3Phlq4Ac1MNl_wi4tgLu-4">
          <mxGeometry relative="1" as="geometry" />
        </mxCell>
        <mxCell id="3Phlq4Ac1MNl_wi4tgLu-2" value="Browser" style="rounded=0;whiteSpace=wrap;html=1;" vertex="1" parent="1">
          <mxGeometry x="76" y="141.5" width="120" height="100" as="geometry" />
        </mxCell>
        <mxCell id="3Phlq4Ac1MNl_wi4tgLu-3" value="http://mydomain.com" style="rounded=0;whiteSpace=wrap;html=1;fontSize=10;" vertex="1" parent="1">
          <mxGeometry x="76" y="141.5" width="120" height="20" as="geometry" />
        </mxCell>
        <mxCell id="3Phlq4Ac1MNl_wi4tgLu-13" style="edgeStyle=orthogonalEdgeStyle;rounded=0;orthogonalLoop=1;jettySize=auto;html=1;entryX=0;entryY=0.5;entryDx=0;entryDy=0;" edge="1" parent="1" source="3Phlq4Ac1MNl_wi4tgLu-4" target="3Phlq4Ac1MNl_wi4tgLu-6">
          <mxGeometry relative="1" as="geometry" />
        </mxCell>
        <mxCell id="3Phlq4Ac1MNl_wi4tgLu-4" value="internet" style="ellipse;shape=cloud;whiteSpace=wrap;html=1;" vertex="1" parent="1">
          <mxGeometry x="230" y="160" width="120" height="80" as="geometry" />
        </mxCell>
        <mxCell id="3Phlq4Ac1MNl_wi4tgLu-6" value="" style="rounded=0;whiteSpace=wrap;html=1;" vertex="1" parent="1">
          <mxGeometry x="400" y="120" width="90" height="160" as="geometry" />
        </mxCell>
        <mxCell id="3Phlq4Ac1MNl_wi4tgLu-7" value="" style="rounded=0;whiteSpace=wrap;html=1;" vertex="1" parent="1">
          <mxGeometry x="385" y="280" width="120" height="10" as="geometry" />
        </mxCell>
        <mxCell id="3Phlq4Ac1MNl_wi4tgLu-8" value="Hardware" style="rounded=0;whiteSpace=wrap;html=1;" vertex="1" parent="1">
          <mxGeometry x="400" y="250" width="90" height="30" as="geometry" />
        </mxCell>
        <mxCell id="3Phlq4Ac1MNl_wi4tgLu-9" value="OS" style="rounded=0;whiteSpace=wrap;html=1;" vertex="1" parent="1">
          <mxGeometry x="400" y="220" width="90" height="30" as="geometry" />
        </mxCell>
        <mxCell id="3Phlq4Ac1MNl_wi4tgLu-10" value="/var/www/html&lt;br&gt;- index.html" style="rounded=0;whiteSpace=wrap;html=1;" vertex="1" parent="1">
          <mxGeometry x="540" y="200" width="100" height="55" as="geometry" />
        </mxCell>
        <mxCell id="3Phlq4Ac1MNl_wi4tgLu-12" style="edgeStyle=orthogonalEdgeStyle;rounded=0;orthogonalLoop=1;jettySize=auto;html=1;" edge="1" parent="1" source="3Phlq4Ac1MNl_wi4tgLu-11" target="3Phlq4Ac1MNl_wi4tgLu-10">
          <mxGeometry relative="1" as="geometry" />
        </mxCell>
        <mxCell id="3Phlq4Ac1MNl_wi4tgLu-11" value="Web&lt;br&gt;Server" style="rounded=0;whiteSpace=wrap;html=1;" vertex="1" parent="1">
          <mxGeometry x="410" y="170" width="70" height="40" as="geometry" />
        </mxCell>
        <mxCell id="3Phlq4Ac1MNl_wi4tgLu-16" value="Server" style="text;html=1;strokeColor=none;fillColor=none;align=center;verticalAlign=middle;whiteSpace=wrap;rounded=0;fontStyle=1;fontSize=15;" vertex="1" parent="1">
          <mxGeometry x="415" y="300" width="60" height="30" as="geometry" />
        </mxCell>
        <mxCell id="3Phlq4Ac1MNl_wi4tgLu-17" value="" style="shape=cylinder3;whiteSpace=wrap;html=1;boundedLbl=1;backgroundOutline=1;size=6.931034482758662;" vertex="1" parent="1">
          <mxGeometry x="560" y="92" width="60" height="60" as="geometry" />
        </mxCell>
        <mxCell id="3Phlq4Ac1MNl_wi4tgLu-19" style="edgeStyle=orthogonalEdgeStyle;rounded=0;orthogonalLoop=1;jettySize=auto;html=1;entryX=0.016;entryY=0.6;entryDx=0;entryDy=0;entryPerimeter=0;" edge="1" parent="1" source="3Phlq4Ac1MNl_wi4tgLu-18" target="3Phlq4Ac1MNl_wi4tgLu-17">
          <mxGeometry relative="1" as="geometry" />
        </mxCell>
        <mxCell id="3Phlq4Ac1MNl_wi4tgLu-18" value="DB" style="rounded=0;whiteSpace=wrap;html=1;" vertex="1" parent="1">
          <mxGeometry x="410" y="130" width="70" height="30" as="geometry" />
        </mxCell>
        <mxCell id="3Phlq4Ac1MNl_wi4tgLu-22" value="" style="rounded=0;whiteSpace=wrap;html=1;" vertex="1" parent="1">
          <mxGeometry x="94" y="40" width="84" height="90" as="geometry" />
        </mxCell>
        <mxCell id="3Phlq4Ac1MNl_wi4tgLu-25" value="Header" style="rounded=0;whiteSpace=wrap;html=1;" vertex="1" parent="1">
          <mxGeometry x="101" y="47" width="70" height="45" as="geometry" />
        </mxCell>
        <mxCell id="3Phlq4Ac1MNl_wi4tgLu-26" value="Body" style="rounded=0;whiteSpace=wrap;html=1;" vertex="1" parent="1">
          <mxGeometry x="101" y="99" width="70" height="23.5" as="geometry" />
        </mxCell>
        <mxCell id="3Phlq4Ac1MNl_wi4tgLu-27" value="Request" style="text;html=1;strokeColor=none;fillColor=none;align=center;verticalAlign=middle;whiteSpace=wrap;rounded=0;fontStyle=1" vertex="1" parent="1">
          <mxGeometry x="106" y="10" width="60" height="30" as="geometry" />
        </mxCell>
        <mxCell id="3Phlq4Ac1MNl_wi4tgLu-28" value="" style="rounded=0;whiteSpace=wrap;html=1;" vertex="1" parent="1">
          <mxGeometry x="548" y="300" width="84" height="90" as="geometry" />
        </mxCell>
        <mxCell id="3Phlq4Ac1MNl_wi4tgLu-29" value="Header" style="rounded=0;whiteSpace=wrap;html=1;" vertex="1" parent="1">
          <mxGeometry x="555" y="307" width="70" height="45" as="geometry" />
        </mxCell>
        <mxCell id="3Phlq4Ac1MNl_wi4tgLu-30" value="Body" style="rounded=0;whiteSpace=wrap;html=1;" vertex="1" parent="1">
          <mxGeometry x="555" y="359" width="70" height="23.5" as="geometry" />
        </mxCell>
        <mxCell id="3Phlq4Ac1MNl_wi4tgLu-31" value="Response" style="text;html=1;strokeColor=none;fillColor=none;align=center;verticalAlign=middle;whiteSpace=wrap;rounded=0;fontStyle=1" vertex="1" parent="1">
          <mxGeometry x="560" y="270" width="60" height="30" as="geometry" />
        </mxCell>
        <mxCell id="3Phlq4Ac1MNl_wi4tgLu-32" value="&lt;b&gt;GET&lt;/b&gt;&lt;br&gt;POST&lt;br&gt;PUT&lt;br&gt;DELETE" style="rounded=0;whiteSpace=wrap;html=1;" vertex="1" parent="1">
          <mxGeometry x="220" y="40" width="65" height="70" as="geometry" />
        </mxCell>
        <mxCell id="3Phlq4Ac1MNl_wi4tgLu-33" value="Methods" style="text;html=1;strokeColor=none;fillColor=none;align=center;verticalAlign=middle;whiteSpace=wrap;rounded=0;fontStyle=1" vertex="1" parent="1">
          <mxGeometry x="222.5" y="10" width="60" height="30" as="geometry" />
        </mxCell>
        <mxCell id="PX9Ss7hlxza2CtNQDUD1-2" value="REST" style="text;html=1;strokeColor=none;fillColor=none;align=center;verticalAlign=middle;whiteSpace=wrap;rounded=0;fontStyle=1;fontSize=19;" vertex="1" parent="1">
          <mxGeometry x="410" y="30" width="60" height="30" as="geometry" />
        </mxCell>
      </root>
    </mxGraphModel>
  </diagram>
  <diagram id="z0h-ajomi1EoZT-JYaHu" name="Page-2">
    <mxGraphModel dx="690" dy="460" grid="1" gridSize="10" guides="1" tooltips="1" connect="1" arrows="1" fold="1" page="1" pageScale="1" pageWidth="827" pageHeight="1169" math="0" shadow="0">
      <root>
        <mxCell id="0" />
        <mxCell id="1" parent="0" />
        <mxCell id="kN_qhfaYWA_WF6hfkLnx-3" style="edgeStyle=orthogonalEdgeStyle;rounded=0;orthogonalLoop=1;jettySize=auto;html=1;entryX=0;entryY=0.5;entryDx=0;entryDy=0;" edge="1" parent="1" source="kN_qhfaYWA_WF6hfkLnx-1" target="kN_qhfaYWA_WF6hfkLnx-2">
          <mxGeometry relative="1" as="geometry" />
        </mxCell>
        <mxCell id="kN_qhfaYWA_WF6hfkLnx-1" value="developer" style="shape=umlActor;verticalLabelPosition=bottom;verticalAlign=top;html=1;outlineConnect=0;" vertex="1" parent="1">
          <mxGeometry x="293" y="150" width="30" height="60" as="geometry" />
        </mxCell>
        <mxCell id="kN_qhfaYWA_WF6hfkLnx-17" style="edgeStyle=orthogonalEdgeStyle;rounded=0;orthogonalLoop=1;jettySize=auto;html=1;entryX=0.5;entryY=0;entryDx=0;entryDy=0;" edge="1" parent="1" source="kN_qhfaYWA_WF6hfkLnx-2" target="kN_qhfaYWA_WF6hfkLnx-9">
          <mxGeometry relative="1" as="geometry" />
        </mxCell>
        <mxCell id="kN_qhfaYWA_WF6hfkLnx-2" value="page1.js" style="rounded=0;whiteSpace=wrap;html=1;" vertex="1" parent="1">
          <mxGeometry x="379" y="155" width="70" height="50" as="geometry" />
        </mxCell>
        <mxCell id="kN_qhfaYWA_WF6hfkLnx-33" style="edgeStyle=orthogonalEdgeStyle;rounded=0;orthogonalLoop=1;jettySize=auto;html=1;" edge="1" parent="1" source="kN_qhfaYWA_WF6hfkLnx-4">
          <mxGeometry relative="1" as="geometry">
            <mxPoint x="420" y="440" as="targetPoint" />
          </mxGeometry>
        </mxCell>
        <mxCell id="kN_qhfaYWA_WF6hfkLnx-4" value="V8&lt;br&gt;&lt;font style=&quot;font-size: 15px;&quot;&gt;(Execution Engine)&lt;/font&gt;" style="rounded=0;whiteSpace=wrap;html=1;fontStyle=1;fontSize=18;fillColor=#dae8fc;strokeColor=#6c8ebf;" vertex="1" parent="1">
          <mxGeometry x="184" y="380" width="220" height="120" as="geometry" />
        </mxCell>
        <mxCell id="kN_qhfaYWA_WF6hfkLnx-5" value="Hardware" style="rounded=0;whiteSpace=wrap;html=1;fontStyle=1;fontSize=16;" vertex="1" parent="1">
          <mxGeometry x="184" y="620" width="460" height="40" as="geometry" />
        </mxCell>
        <mxCell id="kN_qhfaYWA_WF6hfkLnx-7" value="" style="rounded=0;whiteSpace=wrap;html=1;fontStyle=1;fontSize=16;fillColor=#f5f5f5;fontColor=#333333;strokeColor=#666666;" vertex="1" parent="1">
          <mxGeometry x="184" y="513" width="460" height="97" as="geometry" />
        </mxCell>
        <mxCell id="kN_qhfaYWA_WF6hfkLnx-8" value="" style="rounded=0;whiteSpace=wrap;html=1;fontStyle=1;fontSize=18;fillColor=#e1d5e7;strokeColor=#9673a6;" vertex="1" parent="1">
          <mxGeometry x="424" y="380" width="220" height="120" as="geometry" />
        </mxCell>
        <mxCell id="kN_qhfaYWA_WF6hfkLnx-9" value="" style="rounded=0;whiteSpace=wrap;html=1;fontStyle=1;fontSize=16;fillColor=#d5e8d4;strokeColor=#82b366;" vertex="1" parent="1">
          <mxGeometry x="184" y="250" width="460" height="115" as="geometry" />
        </mxCell>
        <mxCell id="kN_qhfaYWA_WF6hfkLnx-10" value="network" style="rounded=1;whiteSpace=wrap;html=1;fillColor=#fff2cc;strokeColor=#d6b656;" vertex="1" parent="1">
          <mxGeometry x="204" y="310" width="70" height="40" as="geometry" />
        </mxCell>
        <mxCell id="kN_qhfaYWA_WF6hfkLnx-12" value="buffer" style="rounded=1;whiteSpace=wrap;html=1;fillColor=#fff2cc;strokeColor=#d6b656;" vertex="1" parent="1">
          <mxGeometry x="293" y="310" width="70" height="40" as="geometry" />
        </mxCell>
        <mxCell id="kN_qhfaYWA_WF6hfkLnx-13" value="http" style="rounded=1;whiteSpace=wrap;html=1;fillColor=#fff2cc;strokeColor=#d6b656;" vertex="1" parent="1">
          <mxGeometry x="379" y="310" width="70" height="40" as="geometry" />
        </mxCell>
        <mxCell id="kN_qhfaYWA_WF6hfkLnx-14" value="crypto" style="rounded=1;whiteSpace=wrap;html=1;fillColor=#fff2cc;strokeColor=#d6b656;" vertex="1" parent="1">
          <mxGeometry x="467" y="310" width="70" height="40" as="geometry" />
        </mxCell>
        <mxCell id="kN_qhfaYWA_WF6hfkLnx-15" value="os" style="rounded=1;whiteSpace=wrap;html=1;fillColor=#fff2cc;strokeColor=#d6b656;" vertex="1" parent="1">
          <mxGeometry x="554" y="310" width="70" height="40" as="geometry" />
        </mxCell>
        <mxCell id="kN_qhfaYWA_WF6hfkLnx-16" value="Node JS" style="text;html=1;strokeColor=none;fillColor=none;align=center;verticalAlign=middle;whiteSpace=wrap;rounded=0;fontStyle=1;fontSize=20;" vertex="1" parent="1">
          <mxGeometry x="366" y="270" width="96" height="30" as="geometry" />
        </mxCell>
        <mxCell id="kN_qhfaYWA_WF6hfkLnx-19" value="IO" style="rounded=1;whiteSpace=wrap;html=1;fillColor=#fff2cc;strokeColor=#d6b656;" vertex="1" parent="1">
          <mxGeometry x="584" y="393" width="56" height="30" as="geometry" />
        </mxCell>
        <mxCell id="kN_qhfaYWA_WF6hfkLnx-20" value="async" style="rounded=1;whiteSpace=wrap;html=1;fillColor=#fff2cc;strokeColor=#d6b656;" vertex="1" parent="1">
          <mxGeometry x="449" y="393" width="46" height="30" as="geometry" />
        </mxCell>
        <mxCell id="kN_qhfaYWA_WF6hfkLnx-22" value="thread pool" style="rounded=1;whiteSpace=wrap;html=1;fillColor=#fff2cc;strokeColor=#d6b656;" vertex="1" parent="1">
          <mxGeometry x="501.75" y="393" width="76.5" height="30" as="geometry" />
        </mxCell>
        <mxCell id="kN_qhfaYWA_WF6hfkLnx-24" value="&lt;b&gt;&lt;font style=&quot;font-size: 18px;&quot;&gt;Libuv&lt;/font&gt;&lt;/b&gt;&lt;br style=&quot;border-color: var(--border-color); font-size: 18px; font-weight: 700;&quot;&gt;&lt;span style=&quot;border-color: var(--border-color); font-weight: 700; font-size: 15px;&quot;&gt;(operating system support)&lt;/span&gt;" style="text;html=1;strokeColor=none;fillColor=none;align=center;verticalAlign=middle;whiteSpace=wrap;rounded=0;" vertex="1" parent="1">
          <mxGeometry x="430" y="440" width="210" height="50" as="geometry" />
        </mxCell>
        <mxCell id="kN_qhfaYWA_WF6hfkLnx-25" value="CPU Sch" style="rounded=0;whiteSpace=wrap;html=1;" vertex="1" parent="1">
          <mxGeometry x="282" y="525.5" width="81" height="30" as="geometry" />
        </mxCell>
        <mxCell id="kN_qhfaYWA_WF6hfkLnx-26" value="File System" style="rounded=0;whiteSpace=wrap;html=1;" vertex="1" parent="1">
          <mxGeometry x="193" y="525.5" width="81" height="30" as="geometry" />
        </mxCell>
        <mxCell id="kN_qhfaYWA_WF6hfkLnx-27" value="Mem mgmt" style="rounded=0;whiteSpace=wrap;html=1;" vertex="1" parent="1">
          <mxGeometry x="373.5" y="525.5" width="81" height="30" as="geometry" />
        </mxCell>
        <mxCell id="kN_qhfaYWA_WF6hfkLnx-28" value="Process Mgmt" style="rounded=0;whiteSpace=wrap;html=1;" vertex="1" parent="1">
          <mxGeometry x="462" y="525.5" width="93" height="30" as="geometry" />
        </mxCell>
        <mxCell id="kN_qhfaYWA_WF6hfkLnx-29" value="HAL" style="rounded=0;whiteSpace=wrap;html=1;" vertex="1" parent="1">
          <mxGeometry x="568" y="525.5" width="67" height="30" as="geometry" />
        </mxCell>
        <mxCell id="kN_qhfaYWA_WF6hfkLnx-32" value="Operating System" style="text;html=1;strokeColor=none;fillColor=none;align=center;verticalAlign=middle;whiteSpace=wrap;rounded=0;fontStyle=1;fontSize=18;" vertex="1" parent="1">
          <mxGeometry x="195" y="570" width="440" height="30" as="geometry" />
        </mxCell>
        <mxCell id="kN_qhfaYWA_WF6hfkLnx-34" value="global variables" style="rounded=0;whiteSpace=wrap;html=1;fillColor=#fff2cc;strokeColor=#d6b656;" vertex="1" parent="1">
          <mxGeometry x="204" y="270" width="120" height="30" as="geometry" />
        </mxCell>
        <mxCell id="kN_qhfaYWA_WF6hfkLnx-36" value="JS&amp;nbsp;&lt;br style=&quot;font-size: 9px;&quot;&gt;C++" style="ellipse;whiteSpace=wrap;html=1;aspect=fixed;fillColor=#d80073;fontColor=#ffffff;strokeColor=#A50040;fontSize=9;fontStyle=1" vertex="1" parent="1">
          <mxGeometry x="174" y="370" width="30" height="30" as="geometry" />
        </mxCell>
        <mxCell id="kN_qhfaYWA_WF6hfkLnx-37" value="JS&amp;nbsp;&lt;br style=&quot;font-size: 9px;&quot;&gt;C++" style="ellipse;whiteSpace=wrap;html=1;aspect=fixed;fillColor=#d80073;fontColor=#ffffff;strokeColor=#A50040;fontSize=9;fontStyle=1" vertex="1" parent="1">
          <mxGeometry x="174" y="240" width="30" height="30" as="geometry" />
        </mxCell>
        <mxCell id="kN_qhfaYWA_WF6hfkLnx-38" value="C++" style="ellipse;whiteSpace=wrap;html=1;aspect=fixed;fillColor=#d80073;fontColor=#ffffff;strokeColor=#A50040;fontSize=9;fontStyle=1" vertex="1" parent="1">
          <mxGeometry x="414" y="370" width="30" height="30" as="geometry" />
        </mxCell>
        <mxCell id="kN_qhfaYWA_WF6hfkLnx-39" value="Events" style="rounded=1;whiteSpace=wrap;html=1;fillColor=#fff2cc;strokeColor=#d6b656;" vertex="1" parent="1">
          <mxGeometry x="584" y="425" width="56" height="30" as="geometry" />
        </mxCell>
        <mxCell id="k9bPbgUrtOxq92RHKdaQ-1" value="file system" style="rounded=0;whiteSpace=wrap;html=1;fillColor=#fff2cc;strokeColor=#d6b656;" vertex="1" parent="1">
          <mxGeometry x="504" y="270" width="120" height="30" as="geometry" />
        </mxCell>
      </root>
    </mxGraphModel>
  </diagram>
</mxfile>
